# xmcd CD database file
#
# Track frame offsets:
#	150
#	32735
#	48040
#	58380
#	71146
#	86153
#	108926
#	121310
#	147373
#	173918
#	191535
#	205915
#	231323
#	255003
#	275878
#
# Disc length: 3834 seconds
#
# Revision: 0
# Processed by: cddbd v1.5.1PL0 Copyright (c) Steve Scherf et al.
# Submitted via: CDex 1.50beta10
#
DISCID=de0ef80f
DTITLE=Conjunto Rumbavana - Te Traigo Mi Son Cubano
DYEAR=1900
DGENRE=Salsa
TTITLE0=Poupourri De Sones
TTITLE1=Tasca Tasca
TTITLE2=Lo Que Mi Alma Ansia
TTITLE3=Ya Ves,No Te Quiero
TTITLE4=La Mujer De Antonio
TTITLE5=Que Baila Sola El Son
TTITLE6=Baila Francisca
TTITLE7=En Casa De Pedro El Cojo
TTITLE8=Vine "Pa" Echar Candela
TTITLE9=Que Me Quieres
TTITLE10=Sin Compensacion
TTITLE11=He Nacido Para Ti
TTITLE12=A Bélen Le Toca Ahora
TTITLE13=Esas No Son Cubanas
TTITLE14=Te Traigo Mi Son Cuban
EXTD=
EXTT0=
EXTT1=
EXTT2=
EXTT3=
EXTT4=
EXTT5=
EXTT6=
EXTT7=
EXTT8=
EXTT9=
EXTT10=
EXTT11=
EXTT12=
EXTT13=
EXTT14=
PLAYORDER=
